<?xml version="1.0" encoding="UTF-8" standalone="no"?>
<svg
   width="64pt"
   height="64pt"
   viewBox="0 0 22.577778 22.577778"
   version="1.1"
   id="svg831"
   inkscape:version="1.1.2 (1:1.1+202202050950+0a00cf5339)"
   sodipodi:docname="21 - Shirt Online Store.svg"
   inkscape:export-filename="/media/taufikramadhan/Data/Tr Design Studio/Project Design/TR Creative Design/Icon Design/Project Hiring/Icon Icons/019 - Commerce And Shopping/5 - Send/21 - Shirt Online Store.png"
   inkscape:export-xdpi="576"
   inkscape:export-ydpi="576"
   xmlns:inkscape="http://www.inkscape.org/namespaces/inkscape"
   xmlns:sodipodi="http://sodipodi.sourceforge.net/DTD/sodipodi-0.dtd"
   xmlns="http://www.w3.org/2000/svg"
   xmlns:svg="http://www.w3.org/2000/svg"
   xmlns:rdf="http://www.w3.org/1999/02/22-rdf-syntax-ns#"
   xmlns:cc="http://creativecommons.org/ns#"
   xmlns:dc="http://purl.org/dc/elements/1.1/">
  <defs
     id="defs825">
    <pattern
       id="EMFhbasepattern"
       patternUnits="userSpaceOnUse"
       width="6"
       height="6"
       x="0"
       y="0" />
    <pattern
       id="EMFhbasepattern-9"
       patternUnits="userSpaceOnUse"
       width="6"
       height="6"
       x="0"
       y="0" />
    <pattern
       id="EMFhbasepattern-0"
       patternUnits="userSpaceOnUse"
       width="6"
       height="6"
       x="0"
       y="0" />
    <pattern
       id="EMFhbasepattern-7"
       patternUnits="userSpaceOnUse"
       width="6"
       height="6"
       x="0"
       y="0" />
    <pattern
       id="EMFhbasepattern-2"
       patternUnits="userSpaceOnUse"
       width="6"
       height="6"
       x="0"
       y="0" />
    <pattern
       id="EMFhbasepattern-98"
       patternUnits="userSpaceOnUse"
       width="6"
       height="6"
       x="0"
       y="0" />
    <pattern
       id="EMFhbasepattern-6"
       patternUnits="userSpaceOnUse"
       width="6"
       height="6"
       x="0"
       y="0" />
    <pattern
       id="EMFhbasepattern-01"
       patternUnits="userSpaceOnUse"
       width="6"
       height="6"
       x="0"
       y="0" />
    <pattern
       id="EMFhbasepattern-07"
       patternUnits="userSpaceOnUse"
       width="6"
       height="6"
       x="0"
       y="0" />
    <pattern
       id="EMFhbasepattern-8"
       patternUnits="userSpaceOnUse"
       width="6"
       height="6"
       x="0"
       y="0" />
    <pattern
       id="EMFhbasepattern-4"
       patternUnits="userSpaceOnUse"
       width="6"
       height="6"
       x="0"
       y="0" />
    <pattern
       id="EMFhbasepattern-40"
       patternUnits="userSpaceOnUse"
       width="6"
       height="6"
       x="0"
       y="0" />
    <pattern
       id="EMFhbasepattern-08"
       patternUnits="userSpaceOnUse"
       width="6"
       height="6"
       x="0"
       y="0" />
    <pattern
       id="EMFhbasepattern-04"
       patternUnits="userSpaceOnUse"
       width="6"
       height="6"
       x="0"
       y="0" />
    <pattern
       id="EMFhbasepattern-014"
       patternUnits="userSpaceOnUse"
       width="6"
       height="6"
       x="0"
       y="0" />
    <pattern
       id="EMFhbasepattern-27"
       patternUnits="userSpaceOnUse"
       width="6"
       height="6"
       x="0"
       y="0" />
    <pattern
       id="EMFhbasepattern-09"
       patternUnits="userSpaceOnUse"
       width="6"
       height="6"
       x="0"
       y="0" />
    <pattern
       id="EMFhbasepattern-5"
       patternUnits="userSpaceOnUse"
       width="6"
       height="6"
       x="0"
       y="0" />
    <pattern
       id="EMFhbasepattern-018"
       patternUnits="userSpaceOnUse"
       width="6"
       height="6"
       x="0"
       y="0" />
  </defs>
  <sodipodi:namedview
     id="base"
     pagecolor="#ffffff"
     bordercolor="#666666"
     borderopacity="1.0"
     inkscape:pageopacity="0.0"
     inkscape:pageshadow="2"
     inkscape:zoom="4.4249417"
     inkscape:cx="43.503398"
     inkscape:cy="42.034452"
     inkscape:document-units="pt"
     inkscape:current-layer="layer1"
     showgrid="false"
     units="pt"
     inkscape:window-width="1366"
     inkscape:window-height="705"
     inkscape:window-x="0"
     inkscape:window-y="31"
     inkscape:window-maximized="1"
     inkscape:pagecheckerboard="true"
     inkscape:showpageshadow="false"
     inkscape:object-paths="true"
     inkscape:snap-intersection-paths="true"
     inkscape:snap-smooth-nodes="true"
     inkscape:snap-midpoints="true"
     showguides="true"
     inkscape:snap-bbox="true"
     inkscape:bbox-nodes="true"
     inkscape:snap-nodes="false"
     inkscape:snap-global="true"
     inkscape:document-rotation="0">
    <inkscape:grid
       type="xygrid"
       id="grid1378" />
    <sodipodi:guide
       position="0.97013831,21.607643"
       orientation="78.000048,0"
       id="guide1380"
       inkscape:locked="false" />
    <sodipodi:guide
       position="0.97013831,0.97013129"
       orientation="0,78.000005"
       id="guide1382"
       inkscape:locked="false" />
    <sodipodi:guide
       position="21.607639,0.97013129"
       orientation="-78.000048,0"
       id="guide1384"
       inkscape:locked="false" />
    <sodipodi:guide
       position="21.607639,21.607643"
       orientation="0,-78.000005"
       id="guide1386"
       inkscape:locked="false" />
  </sodipodi:namedview>
  <metadata
     id="metadata828">
    <rdf:RDF>
      <cc:Work
         rdf:about="">
        <dc:format>image/svg+xml</dc:format>
        <dc:type
           rdf:resource="http://purl.org/dc/dcmitype/StillImage" />
      </cc:Work>
    </rdf:RDF>
  </metadata>
  <g
     inkscape:label="Icon"
     inkscape:groupmode="layer"
     id="layer1"
     transform="translate(0,-274.42223)">
    <g
       id="g421356"
       style="display:inline;stroke-width:0.769237"
       transform="matrix(1.2999894,0,0,1.2999894,0.28222712,-168.68595)">
      <path
         style="color:#000000;fill:#91a9d9;fill-opacity:1;stroke-width:0.769237;stroke-linecap:round;stroke-linejoin:round;stroke-miterlimit:1.5;-inkscape-stroke:none"
         d="m 0.79296875,354.03711 a 0.26460996,0.26460996 0 0 0 -0.26367188,0.26367 v 1.05859 c 0,0.43525 0.35773155,0.79493 0.79296873,0.79493 H 15.611328 c 0.435237,0 0.792969,-0.35968 0.792969,-0.79493 v -1.05859 a 0.26460996,0.26460996 0 0 0 -0.265625,-0.26367 z"
         id="path837441" />
      <path
         id="path407912"
         style="fill:#6788cb;fill-opacity:1;stroke-width:2.90735;stroke-linecap:round;stroke-linejoin:round;stroke-miterlimit:1.5"
         d="M 2.9960938,279.57422 A 1.0001006,1.0001006 0 0 0 2,280.57031 v 4 c 0,0.13731 0.013027,0.2716 0.03125,0.4043 0.8445062,0.5869 1.8680829,0.93164 2.9667969,0.93164 H 59.003906 c 1.099119,0 2.120158,-0.3463 2.964844,-0.93359 C 61.98681,284.84054 62,284.70699 62,284.57031 v -4 a 1.0001006,1.0001006 0 0 0 -1.003906,-0.99609 z"
         transform="matrix(0.26458334,0,0,0.26458334,0,280.06666)" />
      <path
         style="color:#000000;fill:#d0e2ee;stroke-width:0.769237;stroke-linecap:round;stroke-linejoin:round;stroke-miterlimit:1.5;-inkscape-stroke:none"
         d="m 1.3221359,342.94943 c -0.43523719,0 -0.79296874,0.35968 -0.79296874,0.79492 v 10.58203 c 0,0.43524 0.35773155,0.79492 0.79296874,0.79492 H 15.611198 c 0.435237,0 0.792969,-0.35968 0.792969,-0.79492 v -10.58203 c 0,-0.43524 -0.357732,-0.79492 -0.792969,-0.79492 z"
         id="path837447" />
      <path
         id="path350173"
         style="color:#000000;fill:#a8c2e1;fill-opacity:1;stroke-width:0.769237;stroke-linecap:round;stroke-linejoin:round;stroke-miterlimit:1.5;-inkscape-stroke:none"
         d="m 1.3223998,342.92381 c -0.43523718,0 -0.79323328,0.35954 -0.79323328,0.79478 v 1.85105 H 15.082284 c 0.435237,0 0.792717,0.35954 0.792717,0.79478 v 8.71105 c 0.306921,-0.11024 0.529166,-0.40495 0.529166,-0.74776 v -10.60912 c 0,-0.43524 -0.357479,-0.79478 -0.792716,-0.79478 z"
         sodipodi:nodetypes="sscsscssss" />
      <path
         style="color:#000000;fill:#7cb3f4;stroke-width:0.769237;stroke-linecap:round;stroke-linejoin:round;stroke-miterlimit:1.5;-inkscape-stroke:none"
         d="M 4.4414062,346.63477 3.25,346.90039 a 0.26460996,0.26460996 0 0 0 -0.1289062,0.0703 l -1.3242188,1.32422 a 0.26460996,0.26460996 0 0 0 0,0.37305 l 1.0585938,1.05859 a 0.26460996,0.26460996 0 0 0 0.375,0 l 0.099609,-0.0996 0.109375,2.83399 a 0.26460996,0.26460996 0 0 0 0.265625,0.2539 h 3.703125 a 0.26460996,0.26460996 0 0 0 0.2636719,-0.2539 l 0.109375,-2.83594 0.1015625,0.10156 a 0.26460996,0.26460996 0 0 0 0.375,0 l 1.0566406,-1.05859 a 0.26460996,0.26460996 0 0 0 0,-0.37305 L 7.9921875,346.9707 A 0.26460996,0.26460996 0 0 0 7.8632812,346.9004 L 6.671875,346.63477 a 0.26460996,0.26460996 0 0 0 -0.1757813,0.0215 l -0.9394531,0.4707 -0.9394531,-0.4707 a 0.26460996,0.26460996 0 0 0 -0.1757813,-0.0215 z"
         id="path837467" />
      <path
         id="path837453"
         style="color:#000000;fill:#dc1c4b;stroke-width:2.90735;stroke-linecap:round;stroke-linejoin:round;stroke-miterlimit:1.5;-inkscape-stroke:none"
         d="M 4.9980469,237.57031 C 3.353056,237.57031 2,238.92922 2,240.57422 v 4.00195 h 60 v -4.00195 c 0,-1.645 -1.351104,-3.00391 -2.996094,-3.00391 z"
         transform="matrix(0.26458334,0,0,0.26458334,0,280.06666)" />
      <path
         style="color:#000000;fill:#4895ef;stroke-width:0.769237;stroke-linecap:round;stroke-linejoin:round;stroke-miterlimit:1.5;-inkscape-stroke:none"
         d="m 10.714844,345.30664 c -0.435161,0 -0.792969,0.35781 -0.792969,0.79297 0,0.43516 0.357808,0.79297 0.792969,0.79297 h 2.646484 c 0.435161,0 0.792969,-0.35781 0.792969,-0.79297 0,-0.43516 -0.357808,-0.79297 -0.792969,-0.79297 z"
         id="path837479" />
      <path
         style="color:#000000;fill:#4895ef;stroke-width:0.769237;stroke-linecap:round;stroke-linejoin:round;stroke-miterlimit:1.5;-inkscape-stroke:none"
         d="m 10.714844,352.44922 c -0.435161,0 -0.792969,0.35976 -0.792969,0.79492 0,0.43516 0.357808,0.79297 0.792969,0.79297 h 1.324219 c 0.43516,0 0.792968,-0.35781 0.792968,-0.79297 0,-0.43516 -0.357808,-0.79492 -0.792968,-0.79492 z"
         id="path837513" />
      <path
         style="fill:#4377d1;fill-opacity:1;stroke:none;stroke-width:2.2388;stroke-linecap:round;stroke-linejoin:round;stroke-miterlimit:1.5;stroke-opacity:1;stop-color:#000000"
         d="m 4.295373,349.38387 -0.9384576,0.93846 -0.026838,-0.69538 0.6877541,-0.68776 z"
         id="path388928"
         sodipodi:nodetypes="ccccc" />
      <path
         style="fill:#4377d1;fill-opacity:1;stroke:none;stroke-width:2.2388;stroke-linecap:round;stroke-linejoin:round;stroke-miterlimit:1.5;stroke-opacity:1;stop-color:#000000"
         d="m 6.8158884,349.38387 0.9384576,0.93846 0.026838,-0.69538 -0.6877541,-0.68776 z"
         id="path391349"
         sodipodi:nodetypes="ccccc" />
    </g>
    <path
       id="path213487"
       style="color:#000000;display:inline;fill:#000000;stroke-width:1;stroke-linecap:round;stroke-linejoin:round;stroke-miterlimit:1.5;-inkscape-stroke:none"
       d="m 2.0014172,277.11119 c -0.5658036,0 -1.03119475,0.4674 -1.03119475,1.03321 0,5.04423 0,10.08846 0,15.13269 0,0.56582 0.46539115,1.03389 1.03119475,1.03389 0.1910231,6.8e-4 0.3460562,-0.15427 0.3452992,-0.34529 -6.535e-4,-0.19004 -0.1552723,-0.34405 -0.3452992,-0.34329 -0.1940361,0 -0.3426119,-0.15127 -0.3426119,-0.34531 v -0.40306 c 0.1074194,0.0385 0.2226666,0.0605 0.3426119,0.0605 H 20.577031 c 0.120158,0 0.235029,-0.0225 0.342612,-0.0611 v 0.40374 c 0,0.19404 -0.148577,0.3453 -0.342612,0.3453 H 3.3772394 c -0.1890361,6.9e-4 -0.3419603,0.15426 -0.3426119,0.34329 -7.533e-4,0.19003 0.1525812,0.34464 0.3426119,0.34529 H 20.577031 c 0.565804,0 1.030524,-0.46806 1.030524,-1.03388 0,-5.04423 0,-10.08846 0,-15.1327 0,-0.5658 -0.46472,-1.0332 -1.030524,-1.0332 z m 0,0.68791 H 20.577031 c 0.194035,0 0.342612,0.15126 0.342612,0.3453 v 0.68858 h -0.687911 v -0.34529 c -3.78e-4,-0.18918 -0.153436,-0.34255 -0.342612,-0.34329 -0.190486,-0.001 -0.345602,0.1528 -0.34597,0.34329 v 0.34529 h -0.687912 v -0.34529 c -3.78e-4,-0.18918 -0.153436,-0.34255 -0.342612,-0.34329 -0.190224,-6.9e-4 -0.344929,0.15306 -0.345299,0.34329 v 0.34529 H 1.6588053 v -0.68858 c 0,-0.19404 0.1485758,-0.34529 0.3426119,-0.3453 z m -0.3426119,1.72179 H 20.919643 v 12.38039 c 0,0.19403 -0.148577,0.3453 -0.342612,0.3453 H 2.0014172 c -0.1940361,0 -0.3426118,-0.15127 -0.3426119,-0.3453 z m 2.9229504,0.6859 c -0.1910127,-6.9e-4 -0.3460472,0.15429 -0.3452992,0.34529 7.567e-4,0.18997 0.1553376,0.34336 0.3452992,0.34261 H 5.442988 c 0.1889128,-6.8e-4 0.3418746,-0.15369 0.3426119,-0.34261 7.568e-4,-0.18995 -0.1526494,-0.34455 -0.3426119,-0.34529 z m 2.2343674,0 c -0.1899625,6.9e-4 -0.343356,0.15534 -0.3426121,0.34529 7.223e-4,0.18892 0.1536993,0.34189 0.3426121,0.34261 H 10.429 c 0.189175,-3.3e-4 0.342544,-0.15343 0.343284,-0.34261 7.57e-4,-0.19021 -0.153059,-0.34492 -0.343284,-0.34529 z m 7.3957159,0 c -0.565704,0 -1.030524,0.4675 -1.030524,1.03321 0,0.5657 0.46482,1.03119 1.030524,1.03119 h 3.440227 c 0.565703,0 1.031194,-0.46549 1.031194,-1.03119 0,-0.56571 -0.465491,-1.03321 -1.031194,-1.03321 z m 0,0.6879 h 3.440227 c 0.196499,0 0.343284,0.14881 0.343284,0.34531 0,0.1965 -0.146785,0.34261 -0.343284,0.34261 h -3.440227 c -0.1965,0 -0.342613,-0.14611 -0.342613,-0.34261 0,-0.1965 0.146113,-0.34531 0.342613,-0.34531 z m -8.0802682,1.03255 c -0.026,-2e-5 -0.051916,0.003 -0.077256,0.009 l -1.5464564,0.3453 c -0.06421,0.0136 -0.1231857,0.0454 -0.1699622,0.0914 l -1.719106,1.72112 c -0.1333772,0.13417 -0.1333772,0.35086 0,0.48503 l 1.3758222,1.37649 c 0.1341694,0.13338 0.3508614,0.13338 0.485031,0 l 0.1316706,-0.13168 0.1424189,3.68611 c 0.00745,0.18405 0.1590826,0.32934 0.3432838,0.32985 h 4.8160495 c 0.1842018,-3.4e-4 0.3358288,-0.1458 0.3432838,-0.32985 l 0.142419,-3.68611 0.131671,0.13168 c 0.134169,0.13338 0.350861,0.13338 0.48503,0 l 1.375823,-1.37649 c 0.133377,-0.13417 0.133377,-0.35087 0,-0.48504 l -1.718434,-1.7215 c -0.04696,-0.0462 -0.106183,-0.0779 -0.170634,-0.0914 l -1.5457851,-0.34528 c -0.077255,-0.0174 -0.1581689,-0.008 -0.2290798,0.0276 l -1.2206391,0.61201 -1.2239982,-0.61201 c -0.046957,-0.0234 -0.09866,-0.0359 -0.1511522,-0.0363 z m -0.047025,0.70672 1.2669921,0.63484 c 0.096661,0.0482 0.2103468,0.0482 0.3070072,0 l 1.2669926,-0.63484 1.3308123,0.29693 1.406723,1.40672 -0.888775,0.88878 -0.7900222,-0.79002 c -0.1343938,-0.13474 -0.3526525,-0.13474 -0.4870462,0 -0.1351865,0.13446 -0.1351865,0.35325 0,0.48772 l 0.2378129,0.23713 -0.1518241,3.99042 H 5.4295523 l -0.1538395,-3.99042 0.2378129,-0.23713 c 0.1351865,-0.13447 0.1351865,-0.35326 0,-0.48772 -0.1344695,-0.13518 -0.3532486,-0.13518 -0.487718,0 l -0.7873359,0.79002 -0.890791,-0.89147 1.4060526,-1.40403 z m 7.4393812,0.67045 c -0.188913,6.9e-4 -0.341876,0.1537 -0.342612,0.34261 -7.57e-4,0.18995 0.152651,0.34455 0.342612,0.34529 h 0.687912 c 0.191011,6.9e-4 0.346045,-0.15428 0.345299,-0.34529 -7.57e-4,-0.18997 -0.155336,-0.34335 -0.345299,-0.34261 z m 2.064405,0 c -0.188914,6.9e-4 -0.341876,0.1537 -0.342612,0.34261 -7.56e-4,0.18995 0.152651,0.34455 0.342612,0.34529 0.191012,6.9e-4 0.346046,-0.15428 0.3453,-0.34529 -7.57e-4,-0.18997 -0.155336,-0.34335 -0.3453,-0.34261 z m 1.375821,0 c -0.188912,6.9e-4 -0.341875,0.1537 -0.342611,0.34261 -7.56e-4,0.18995 0.15265,0.34455 0.342611,0.34529 0.191011,6.9e-4 0.346047,-0.15428 0.3453,-0.34529 -7.56e-4,-0.18997 -0.155336,-0.34335 -0.3453,-0.34261 z m -3.440226,1.37312 c -0.190225,6.9e-4 -0.343728,0.15576 -0.342612,0.34598 7.23e-4,0.18892 0.1537,0.34187 0.342612,0.34262 h 4.128139 c 0.189174,-3.6e-4 0.342544,-0.15344 0.343284,-0.34262 0.0011,-0.19048 -0.152796,-0.3456 -0.343284,-0.34598 z m 5.504632,0 c -0.191276,-6.8e-4 -0.346421,0.1547 -0.3453,0.34598 7.59e-4,0.18996 0.155338,0.34336 0.3453,0.34262 h 0.687912 c 0.188913,-6.9e-4 0.341875,-0.1537 0.342612,-0.34262 0.0011,-0.19022 -0.152386,-0.34523 -0.342612,-0.34598 z m -5.504632,1.3765 c -0.189962,6.9e-4 -0.343356,0.15533 -0.342612,0.3453 7.23e-4,0.18892 0.1537,0.34187 0.342612,0.34261 h 0.345299 c 0.188914,-6.9e-4 0.341875,-0.15369 0.342613,-0.34261 7.56e-4,-0.18997 -0.15265,-0.34456 -0.342613,-0.3453 z m 1.721793,0 c -0.191275,-0.001 -0.346721,0.15402 -0.34597,0.3453 7.57e-4,0.19023 0.155747,0.34373 0.34597,0.34261 h 3.094928 c 0.188912,-6.9e-4 0.341874,-0.15369 0.342611,-0.34261 7.59e-4,-0.18997 -0.152649,-0.34456 -0.342611,-0.3453 z m -1.721793,1.72179 c -0.188913,6.9e-4 -0.341876,0.1537 -0.342612,0.34262 -7.57e-4,0.18996 0.152651,0.34456 0.342612,0.3453 h 2.064405 c 0.191012,6.9e-4 0.346046,-0.15428 0.3453,-0.3453 -7.57e-4,-0.18997 -0.155336,-0.34336 -0.3453,-0.34262 z m 0.687912,1.71843 c -0.565704,0 -1.030524,0.46551 -1.030524,1.03121 0,0.5657 0.46482,1.0332 1.030524,1.0332 h 1.721793 c 0.565703,0 1.030521,-0.4675 1.030521,-1.0332 0,-0.5657 -0.464818,-1.03121 -1.030521,-1.03121 z m -0.01814,0.6886 c 0.006,-2.9e-4 0.01196,0 0.01814,0 h 1.721793 c 0.1965,0 0.342612,0.1461 0.342612,0.34261 0,0.19649 -0.146112,0.34529 -0.342612,0.34529 h -1.721793 c -0.1965,0 -0.342613,-0.1488 -0.342613,-0.34529 0,-0.19037 0.137247,-0.33385 0.324474,-0.34261 z m -8.2374668,0.68724 c -0.1899612,6.8e-4 -0.3433543,0.15533 -0.3426121,0.34529 7.223e-4,0.18891 0.1536979,0.34188 0.3426121,0.34261 0.1899628,6.9e-4 0.3445595,-0.15265 0.345299,-0.34261 7.568e-4,-0.19101 -0.1542878,-0.34605 -0.345299,-0.34529 z m 1.3758221,0 c -0.1899611,6.8e-4 -0.3433542,0.15533 -0.342612,0.34529 7.223e-4,0.18891 0.1536979,0.34188 0.342612,0.34261 0.1899629,6.9e-4 0.3445596,-0.15265 0.345299,-0.34261 7.567e-4,-0.19101 -0.1542878,-0.34605 -0.345299,-0.34529 z m 1.3758222,0 c -0.1899612,6.8e-4 -0.3433544,0.15533 -0.3426121,0.34529 7.223e-4,0.18891 0.1536979,0.34188 0.3426121,0.34261 0.1899629,6.9e-4 0.3445595,-0.15265 0.345299,-0.34261 7.567e-4,-0.19101 -0.1542878,-0.34605 -0.345299,-0.34529 z"
       sodipodi:nodetypes="scccccscsscsscccsccsscssccccccccscccscccssssccsccscccsccsccssssssssssssssscccccccccccccccccccccccssccccccccccccccccccccccsccsccsssssssssscccccccccccccccsccscccsccscccsccsccsssssssssssssssssssssssssssssss" />
  </g>
</svg>
